<?xml version="1.0" encoding="UTF-8"?>
<svg width="568px" height="177px" viewBox="0 0 568 177" version="1.1" xmlns="http://www.w3.org/2000/svg" xmlns:xlink="http://www.w3.org/1999/xlink">
    <title>bloomberg_logo</title>
    <g id="Page-1" stroke="none" stroke-width="1" fill="none" fill-rule="evenodd">
        <path d="M565.205,120.203 L565.205,108.182 L562.575,108.182 C562.387,110.25 562.293,111.188 560.603,111.188 C559.853,111.188 559.384,111 558.445,110.438 C556.848,109.591 554.312,108.653 551.025,108.653 C542.197,108.653 538.442,115.133 538.442,121.33 C538.442,130.533 545.109,132.692 551.119,134.664 C554.968,135.791 561.731,136.638 561.731,141.614 C561.731,144.619 558.632,147.625 553.75,147.625 C550.65,147.625 547.361,146.403 545.015,144.15 C541.822,141.239 541.257,137.766 540.695,134.76 L537.97,134.76 L537.97,149.033 L540.695,149.033 C540.601,148.375 540.507,146.497 542.197,146.497 C542.856,146.497 543.7,147.06 545.203,147.906 C545.765,148.281 549.148,150.161 553.465,150.161 C563.703,150.161 567.929,142.177 567.929,135.979 C567.929,127.341 560.697,125.273 556.189,123.961 L553.372,123.208 C550.744,122.552 547.645,121.424 546.798,120.672 C545.673,119.734 545.015,118.231 545.015,116.822 C545.015,113.911 547.739,111.281 551.681,111.281 C554.031,111.281 556.754,112.127 558.632,113.536 C561.356,115.602 561.918,117.763 562.575,120.203 L565.205,120.203 Z M508.112,119.075 C508.484,115.32 509.049,110.813 515.622,110.813 C521.726,110.813 522.01,115.414 522.292,118.7 L522.292,124.148 L508.015,124.148 L508.112,119.075 Z M534.687,126.872 C534.028,122.646 533.372,118.513 529.617,114.474 C526.046,110.625 520.879,108.653 515.622,108.653 C503.414,108.653 494.87,117.572 494.87,129.313 C494.87,140.674 503.039,150.161 516.375,150.161 C527.736,150.161 532.056,142.367 534.215,138.234 L531.869,137.106 C529.52,140.864 525.578,147.25 517.593,147.25 C508.203,147.25 507.921,137.859 507.828,134.289 C507.734,131.755 507.828,129.313 507.828,126.872 L534.687,126.872 Z M474.117,92.5 C474.117,96.258 477.122,99.263 480.876,99.263 C484.632,99.263 487.637,96.258 487.637,92.5 C487.637,88.744 484.632,85.739 480.876,85.739 C477.122,85.739 474.117,88.744 474.117,92.5 Z M469.89,112.221 L476.275,112.221 L476.275,146.591 L469.89,146.591 L469.89,149.033 L494.026,149.033 L494.026,146.591 L488.015,146.591 L488.015,108.935 C483.601,109.216 481.158,109.403 478.812,109.591 C476.369,109.685 474.117,109.778 469.89,109.778 L469.89,112.221 Z M455.335,128.56 C455.523,139.924 454.301,147.06 448.01,147.06 C444.442,147.06 440.965,143.963 439.182,140.486 C437.492,137.106 437.21,133.258 437.21,129.5 C437.21,118.981 440.684,115.602 442.843,113.911 C444.252,112.877 445.848,112.127 447.632,112.127 C452.046,112.127 453.551,115.977 454.208,118.513 C455.054,121.799 455.239,125.18 455.335,128.56 Z M437.96,108.935 C431.95,109.778 431.012,109.778 419.742,109.778 L419.742,112.314 L425.846,112.314 L425.846,173.919 L419.742,173.919 L419.742,176.549 L445.379,176.549 L445.379,173.919 L437.773,173.919 L437.773,143.398 C440.309,146.403 443.596,150.161 450.45,150.161 C458.34,150.161 462.377,145.372 464.161,143.023 C467.822,138.047 468.293,133.539 468.293,130.063 C468.293,114.758 457.87,108.653 449.887,108.653 C443.409,108.653 440.309,112.408 437.773,115.508 L437.96,108.935 Z M407.065,128.656 C407.159,137.859 407.159,148.189 397.862,148.189 C393.731,148.189 391.195,145.747 390.067,143.492 C389.317,142.177 388.377,140.205 388.377,129.031 C388.377,120.766 388.565,111 397.768,111 C401.526,111 404.343,112.783 405.846,116.166 C406.409,117.385 406.971,118.7 407.065,128.656 Z M419.838,128.56 C418.898,113.724 406.409,108.653 397.862,108.653 C388.284,108.653 375.325,114.664 375.325,129.219 C375.325,139.736 383.026,150.064 398.143,150.064 C411.76,150.064 417.395,140.955 418.71,137.297 C419.745,134.57 420.026,131.474 419.838,128.56 Z M354.948,108.935 C348.843,109.591 342.645,109.778 336.448,109.778 L336.448,112.221 L342.833,112.221 L342.833,146.591 L336.448,146.591 L336.448,149.033 L362.46,149.033 L362.46,146.591 L354.667,146.591 L354.667,128.75 C354.667,124.992 355.417,119.922 358.421,115.789 C358.421,115.789 361.426,111.939 362.742,111.939 C363.398,111.939 364.057,112.408 364.057,112.877 C364.057,113.161 363.776,113.442 363.585,113.817 C363.023,114.567 362.364,115.602 362.364,117.291 C362.364,120.016 364.526,122.833 368.375,122.833 C373.167,122.833 374.668,119.075 374.668,116.447 C374.668,112.783 372.226,108.653 366.403,108.653 C362.554,108.653 359.831,110.25 357.671,112.783 C356.542,114.005 355.698,115.508 354.757,117.01 L354.948,108.935 Z M303.674,82.17 C302.078,82.358 300.198,82.64 294.94,82.921 C291.088,83.109 287.895,83.109 285.361,83.109 L285.361,85.645 L292.122,85.645 L292.122,146.591 L285.361,146.591 L285.361,149.033 L309.307,149.033 L309.307,146.591 L303.581,146.591 L303.581,129.5 C303.674,124.148 303.765,118.138 309.12,114.474 C310.528,113.442 312.406,112.783 314.473,112.783 C319.637,112.783 320.109,117.01 320.012,121.799 L320.012,146.591 L314.848,146.591 L314.848,149.033 L337.856,149.033 L337.856,146.591 L331.659,146.591 L331.659,121.424 C331.659,118.325 331.752,115.133 329.122,112.127 C327.807,110.625 324.898,108.653 319.262,108.653 C310.34,108.653 305.833,114.005 303.674,116.635 L303.674,82.17 Z M275.501,94.002 L272.871,94.002 C267.425,105.836 261.603,108.747 257.377,110.719 L257.377,112.221 L264.138,112.221 L263.95,139.08 C263.95,143.211 264.044,150.161 273.529,150.161 C283.296,150.161 285.548,143.398 286.864,138.891 L284.234,138.328 C283.107,142.086 281.605,145.185 278.788,145.185 C275.594,145.185 275.501,141.708 275.501,139.453 L275.501,112.221 L283.671,112.221 L283.671,109.778 L275.501,109.778 L275.501,94.002 Z M225.993,108.935 C219.044,109.216 213.597,109.778 207.869,109.778 L207.869,112.221 L214.254,112.221 L214.254,146.591 L207.869,146.591 L207.869,149.033 L232.002,149.033 L232.002,146.591 L225.993,146.591 L225.993,129.125 C225.993,124.805 225.993,123.114 226.369,121.518 C227.684,116.166 232.942,112.971 236.229,112.971 C241.957,112.971 241.957,118.044 241.957,123.302 L241.957,146.591 L236.698,146.591 L236.698,149.033 L259.8,149.033 L259.8,146.591 L253.603,146.591 L253.603,121.518 C253.603,117.385 253.603,111.564 245.996,109.403 C243.46,108.653 241.3,108.653 240.642,108.653 C238.765,108.653 236.322,108.935 233.505,110.063 C229.656,111.658 228.058,113.442 225.993,115.883 L225.993,108.935 Z M189.276,135.51 C189.276,137.953 189.369,140.864 186.646,143.117 C185.52,143.963 184.11,144.619 182.515,144.619 C179.228,144.619 176.128,142.086 176.128,137.388 C176.128,129.031 184.298,128.56 189.276,128.278 L189.276,135.51 Z M200.45,120.955 C200.45,117.669 200.545,113.067 194.159,110.344 C191.436,109.216 188.149,108.653 184.768,108.653 C175.659,108.653 168.334,112.877 168.334,118.888 C168.334,121.893 170.493,124.055 173.593,124.055 C176.785,124.055 178.945,121.611 178.945,118.794 C178.945,118.138 178.757,117.479 178.476,116.916 C178.194,116.166 177.63,115.602 177.349,114.852 C177.161,114.474 177.068,114.192 177.068,113.817 C177.068,112.971 178.476,111.094 182.702,111.094 C188.995,111.094 189.276,114.286 189.276,118.231 L189.276,125.65 C183.453,126.213 175.753,126.872 170.493,130.721 C166.361,133.727 165.046,137.578 165.046,140.583 C165.046,143.492 166.456,150.064 176.128,150.064 C183.453,150.064 187.397,145.747 189.276,143.586 C190.496,146.028 192.562,150.064 197.916,150.064 C202.517,150.064 205.428,147.156 207.118,145.372 L205.616,143.305 C204.865,143.869 203.925,144.713 202.798,144.713 C200.545,144.713 200.45,141.989 200.45,139.83 L200.45,120.955 Z M156.502,82.17 C153.497,82.733 149.741,83.015 146.36,83.109 C142.979,83.203 139.88,83.203 138.096,83.203 L138.096,85.832 L144.669,85.832 L144.669,146.591 L138.096,146.591 L138.096,149.033 L162.7,149.033 L162.7,146.591 L156.502,146.591 L156.502,82.17 Z M116.469,92.5 C116.469,96.258 119.474,99.263 123.231,99.263 C126.988,99.263 129.992,96.258 129.992,92.5 C129.992,88.744 126.988,85.739 123.231,85.739 C119.474,85.739 116.469,88.744 116.469,92.5 Z M112.244,112.221 L118.629,112.221 L118.629,146.591 L112.244,146.591 L112.244,149.033 L136.378,149.033 L136.378,146.591 L130.368,146.591 L130.368,108.935 C125.955,109.216 123.513,109.403 121.165,109.591 C118.723,109.685 116.469,109.778 112.244,109.778 L112.244,112.221 Z M76.315,82.17 C74.718,82.358 72.84,82.64 67.581,82.921 C63.731,83.109 60.538,83.109 58.002,83.109 L58.002,85.645 L64.764,85.645 L64.764,146.591 L58.002,146.591 L58.002,149.033 L81.949,149.033 L81.949,146.591 L76.22,146.591 L76.22,129.5 C76.315,124.148 76.409,118.138 81.761,114.474 C83.169,113.442 85.048,112.783 87.114,112.783 C92.279,112.783 92.749,117.01 92.655,121.799 L92.655,146.591 L87.49,146.591 L87.49,149.033 L110.498,149.033 L110.498,146.591 L104.3,146.591 L104.3,121.424 C104.3,118.325 104.394,115.133 101.764,112.127 C100.45,110.625 97.538,108.653 91.903,108.653 C82.982,108.653 78.474,114.005 76.315,116.635 L76.315,82.17 Z M22.881,85.175 L31.239,85.175 C34.244,85.175 38.376,85.363 41.099,89.025 C42.883,91.466 43.352,95.224 43.352,100.388 C43.352,108.466 41.005,111.846 39.597,112.877 C36.967,114.852 33.117,115.32 31.52,115.32 L22.881,115.32 L22.881,85.175 Z M22.881,118.044 L35.652,118.044 C40.629,118.044 46.828,117.572 51.71,114.005 C57.909,109.497 58.19,103.111 58.19,100.766 C58.19,95.411 55.936,90.06 51.617,86.772 C46.546,83.015 40.442,82.921 35.277,82.733 L1,82.733 L1,85.175 L8.982,85.175 L8.982,146.591 L1,146.591 L1,149.033 L31.708,149.033 L31.708,146.591 L22.881,146.591 L22.881,118.044 L22.881,118.044 Z" id="Philanthropies" fill="#FFFFFF"></path>
        <path d="M416.64,74.750888 C418.612,74.750888 423.307,74.657 423.307,79.916 C423.307,85.739 416.64,90.81 405.463,90.81 C395.135,90.81 391.565,85.457 391.565,81.231 C391.565,78.132 393.067,76.536 394.757,74.750888 L416.64,74.750888 Z M399.456,41.038 C399.456,34.37 399.456,28.736 405.84,28.736 C406.684,28.736 409.596,28.736 411.098,31.835 C412.039,33.901 412.039,35.967 412.039,41.414 C412.039,48.081 412.039,53.528 405.934,53.528 C399.737,53.528 399.456,48.457 399.456,41.038 Z M395.792,63.294 C392.692,63.294 389.968,63.2 389.968,60.195 C389.968,57.19 393.632,55.218 396.542,54.091 C398.515,55.03 401.051,56.251 406.122,56.251 C415.606,56.251 423.588,51.086 423.588,41.038 C423.588,37.845 422.557,36.061 421.523,34.183 C421.804,32.868 422.085,32.398 422.557,32.398 C423.026,32.398 423.12,32.398 423.87,33.337 C424.434,34.089 425.465,34.558 426.593,34.558 C429.317,34.558 430.632,32.493 430.632,30.333 C430.632,27.609 428.567,26.013 426.218,26.013 C424.997,26.013 423.588,26.482 422.463,27.327 C420.676,28.642 420.208,30.426 419.739,31.835 C417.109,29.581 413.542,26.482 406.215,26.482 C397.671,26.482 388.09,31.271 388.09,41.507 C388.09,47.799 392.036,50.898 394.476,52.871 C392.223,53.622 384.898,56.251 384.898,64.797 C384.898,66.206 385.085,68.835 387.434,71.276 C389.218,73.249 390.627,73.624 392.598,74 C389.968,74.939 384.992,76.629 384.992,81.888 C384.992,87.711 391.942,93.815 405.463,93.815 C418.331,93.815 427.909,87.429 427.909,76.066 C427.909,73.155 427.44,70.713 425.562,68.084 C422.179,63.2 418.706,63.294 411.945,63.294 L395.792,63.294 Z M365.929,26.763 C359.825,27.421 353.627,27.609 347.429,27.609 L347.429,30.05 L353.815,30.05 L353.815,64.421 L347.429,64.421 L347.429,66.863 L373.442,66.863 L373.442,64.421 L365.648,64.421 L365.648,46.579 C365.648,42.822 366.398,37.751 369.403,33.619 C369.403,33.619 372.409,29.769 373.723,29.769 C374.379,29.769 375.039,30.239 375.039,30.708 C375.039,30.99 374.757,31.271 374.57,31.647 C374.004,32.398 373.348,33.431 373.348,35.122 C373.348,37.845 375.507,40.663 379.359,40.663 C384.148,40.663 385.651,36.906 385.651,34.276 C385.651,30.614 383.208,26.482 377.387,26.482 C373.536,26.482 370.812,28.079 368.651,30.614 C367.526,31.835 366.679,33.337 365.742,34.84 L365.929,26.763 Z M320.101,36.906 C320.479,33.149 321.042,28.642 327.617,28.642 C333.721,28.642 334.002,33.243 334.284,36.53 L334.284,41.977 L320.01,41.977 L320.101,36.906 Z M346.679,44.7 C346.02,40.474 345.364,36.343 341.609,32.304 C338.039,28.454 332.875,26.482 327.617,26.482 C315.406,26.482 306.862,35.403 306.862,47.142 C306.862,58.505 315.031,67.99 328.367,67.99 C339.729,67.99 344.049,60.195 346.208,56.063 L343.862,54.937 C341.512,58.693 337.57,65.079 329.588,65.079 C320.195,65.079 319.914,55.688 319.82,52.119 C319.726,49.584 319.82,47.142 319.82,44.7 L346.679,44.7 Z M290.523,46.296 C290.523,56.721 290.239,64.891 282.728,64.891 C279.347,64.891 275.684,62.919 273.431,59.351 C271.082,55.688 270.613,50.523 270.613,47.33 C270.613,44.794 270.989,39.629 273.054,35.873 C275.026,32.304 279.065,29.393 282.728,29.393 C288.549,29.393 289.489,34.746 289.864,36.624 C290.335,39.253 290.523,43.573 290.523,46.296 Z M271.082,0 C267.138,0.657 262.818,0.938 260.941,1.033 L252.771,1.033 L252.771,3.662 L259.344,3.662 L259.344,64.421 L252.771,64.421 L252.771,66.863 L270.989,66.863 L270.989,60.947 C273.431,63.952 277.375,67.896 284.793,67.896 C290.145,67.896 294.934,66.299 298.973,61.041 C303.2,55.688 303.481,50.429 303.481,47.706 C303.481,32.493 293.057,26.482 284.604,26.482 C277.375,26.482 273.9,30.239 271.082,33.337 L271.082,0 Z M195.674,26.763 C190.416,27.421 188.444,27.609 177.739,27.609 L177.739,30.05 L183.936,30.05 L183.936,64.421 L177.739,64.421 L177.739,66.863 L201.404,66.863 L201.404,64.421 L195.581,64.421 L195.581,44.513 C195.862,40.099 196.05,37 198.304,34.183 C199.901,32.304 202.343,30.802 205.16,30.802 C210.23,30.802 210.794,35.216 210.794,40.568 L210.794,64.421 L205.722,64.421 L205.722,66.863 L227.792,66.863 L227.792,64.421 L222.157,64.421 L222.157,46.109 C222.157,41.132 222.345,36.906 225.82,33.525 C227.698,31.741 229.951,30.708 232.017,30.708 C237.37,30.708 237.37,35.31 237.37,40.099 L237.37,64.421 L232.205,64.421 L232.205,66.863 L254.837,66.863 L254.837,64.421 L249.016,64.421 L249.016,39.817 C248.733,34.746 248.64,26.482 236.244,26.482 C227.134,26.482 223.566,32.21 222.157,34.558 C219.997,30.52 217.649,26.388 209.197,26.388 C201.874,26.388 198.398,30.426 195.674,33.619 L195.674,26.763 Z M164.123,46.485 C164.216,55.688 164.216,66.018 154.918,66.018 C150.786,66.018 148.251,63.576 147.125,61.322 C146.374,60.007 145.435,58.036 145.435,46.86 C145.435,38.596 145.623,28.83 154.825,28.83 C158.581,28.83 161.398,30.614 162.901,33.995 C163.465,35.216 164.028,36.53 164.123,46.485 Z M176.893,46.391 C175.955,31.553 163.465,26.482 154.918,26.482 C145.339,26.482 132.381,32.493 132.381,47.048 C132.381,57.566 140.081,67.896 155.201,67.896 C168.817,67.896 174.452,58.787 175.767,55.124 C176.8,52.401 177.081,49.302 176.893,46.391 Z M116.164,46.485 C116.257,55.688 116.257,66.018 106.96,66.018 C102.829,66.018 100.293,63.576 99.166,61.322 C98.415,60.007 97.476,58.036 97.476,46.86 C97.476,38.596 97.664,28.83 106.867,28.83 C110.623,28.83 113.44,30.614 114.942,33.995 C115.506,35.216 116.069,36.53 116.164,46.485 Z M128.936,46.391 C127.996,31.553 115.506,26.482 106.96,26.482 C97.382,26.482 84.422,32.493 84.422,47.048 C84.422,57.566 92.123,67.896 107.242,67.896 C120.859,67.896 126.493,58.787 127.808,55.124 C128.841,52.401 129.123,49.302 128.936,46.391 Z M77.192,0 C74.187,0.563 70.431,0.845 67.05,0.938 C63.669,1.033 60.57,1.033 58.786,1.033 L58.786,3.662 L65.36,3.662 L65.36,64.421 L58.786,64.421 L58.786,66.863 L83.39,66.863 L83.39,64.421 L77.192,64.421 L77.192,0 Z M22.069,3.192 L29.394,3.192 C37.094,3.192 41.038,5.071 41.038,17.466 C41.038,28.454 37.094,31.084 29.769,31.084 L22.069,31.084 L22.069,3.192 Z M22.069,33.713 L30.802,33.713 C33.526,33.713 37.47,33.995 40.193,37.376 C42.447,40.099 42.823,44.513 42.823,49.302 C42.823,53.34 42.54,57.097 40.851,59.914 C38.315,64.046 34.558,64.421 31.46,64.421 L22.069,64.421 L22.069,33.713 Z M0.188,0.563 L0.188,3.005 L8.17,3.005 L8.17,64.421 L0.188,64.421 L0.188,66.863 L29.487,66.863 C39.348,66.769 51.18,66.769 56.251,57.284 C57.754,54.467 58.13,51.556 58.13,49.302 C58.13,39.723 51.18,35.028 44.701,33.337 C42.447,32.774 40.099,32.493 37.657,32.21 C39.817,31.929 41.977,31.553 44.043,30.99 C50.523,29.017 55.03,24.228 55.03,16.997 C55.03,12.208 53.34,7.231 47.424,3.756 C42.259,0.845 36.249,0.657 30.802,0.563 L0.188,0.563 L0.188,0.563 Z" id="Bloomberg" fill="#FFFFFF"></path>
    </g>
</svg>